<?xml version="1.0" encoding="utf-8" ?><svg xmlns="http://www.w3.org/2000/svg" xmlns:xlink="http://www.w3.org/1999/xlink" width="1024" height="1024" viewBox="0 0 1024 1024"><path fill="#5E39D7" d="M683.176 197.023L737.456 196.98C737.135 250.137 737.131 303.296 737.445 356.454C745.367 347.673 754.666 335.854 762.243 326.61L812.168 265.508L883.914 265.515C881.95 268.374 877.174 273.485 874.751 276.277L857.945 295.785C837.31 319.43 815.921 342.985 796.139 367.296C807.156 383.216 819.604 399.525 831.129 415.224C851.627 443.503 872.459 471.54 893.619 499.328C881.652 509.009 869.444 520.218 857.678 530.3C826.556 556.733 795.758 583.543 765.288 610.724C789.647 630.422 813.875 650.281 837.969 670.302C849.75 679.98 862.62 690.047 873.989 700.017C840.234 728.147 806.722 756.568 773.457 785.277C758.491 798.003 736.429 815.32 723.083 828.684C713.141 819.298 696.83 806.98 685.85 797.999C662.703 779.064 638.891 760.503 615.849 741.41C610.724 746.6 596.621 757.713 590.466 762.923L540.366 805.167C531.86 812.351 521.797 820.454 513.721 827.964C501.377 818.39 486.026 804.074 473.709 793.649L439.482 764.518C432.396 758.462 423.96 751.486 417.303 745.085C407.251 752.715 397.484 761.939 387.74 770.138L319.313 828.171L162.222 700.304C169.771 701.374 181.672 700.701 189.563 700.877C211.174 701.359 235.046 699.787 256.499 700.871C264.895 708.32 274.032 715.572 282.634 722.857C295.202 733.501 307.806 743.975 320.762 754.147L330.152 745.927C344.293 733.516 358.36 721.02 372.351 708.439L310.04 657.149C296.218 645.819 279.302 632.661 266.138 620.997C266.608 580.498 265.983 539.851 266.545 499.506L323.463 499.48C323.433 530.846 322.881 563.427 323.207 594.646C326.204 597.908 331.816 602.192 335.458 605.122L355.885 621.435C375.208 636.731 394.373 652.226 413.376 667.918L413.001 474.974C395.009 498.683 359.451 503.027 331.95 498.481C290.841 491.685 265.191 453.531 273.043 412.725C275.38 400.792 281.418 389.899 290.299 381.594C318.634 354.909 351.6 363.701 386.208 358.21C401.382 356.175 415.638 347.739 410.362 330.034C399.313 292.957 332.069 302.529 327.837 338.216C313.835 337.927 292.259 337.581 278.418 338.401C279.725 318.107 284.654 302.116 299.576 287.331C334.483 252.744 409.598 249.759 444.703 285.299C454.406 294.935 461.004 307.254 463.65 320.67C466.83 336.215 466.517 357.585 466.541 373.592L466.572 426.647L466.494 618.598C477.128 608.278 490.353 597.062 501.471 587.184C518.983 571.37 536.618 555.694 554.375 540.156C562.678 532.956 570.925 525.691 579.116 518.362C585.02 513.012 593.235 505.063 599.473 500.576C627.396 500.207 655.592 500.637 683.591 500.402C682.964 473.365 683.454 443.776 683.463 416.618L683.39 273.426C683.395 248.736 683.939 221.499 683.176 197.023ZM553.171 615.505C568.924 628.294 584.607 641.171 600.217 654.134L686.454 724.864C698.557 734.804 711.488 744.911 723.356 754.864L786.618 699.687C762.026 678.857 736.157 659.232 711.457 638.533C703.601 631.951 690.994 623.167 684.008 616.411C683.307 605.621 683.539 593.084 683.537 582.146L683.517 530.737L683.535 511.918C683.541 509.997 683.911 502.261 682.986 501.401C657.701 523.016 632.66 544.916 607.869 567.096C589.812 583.012 570.653 599.123 553.171 615.505ZM738.347 559.057C747.874 551.457 760.029 540.306 769.322 532.007L816.18 491.352C811.803 484.636 759.952 409.659 756.909 408.254L738.057 430.376C738.904 467.545 738.109 504.96 738.47 542.15C738.524 547.703 738.584 553.525 738.347 559.057ZM466.441 618.917L466.407 712.156C482.545 725.68 499.019 740.821 515.411 753.865C525.222 744.794 535.198 735.905 545.336 727.201C554.234 719.53 563.514 710.667 572.218 703.355C537.465 675.635 501.896 645.521 466.441 618.917ZM412.688 379.907C405.661 385.281 402.555 387.166 394.33 390.223C372.674 398.271 331.042 389.538 326.498 420.645C325.075 430.389 328.522 440.637 336.012 447.159C355.178 462.556 388.723 455.667 403.211 436.895C413.035 424.166 413.384 408.983 413.055 393.562C412.988 390.089 413.604 383.02 412.688 379.907Z"/><path fill="#5E39D7" d="M568.362 260.722C568.453 260.703 568.544 260.685 568.635 260.666C607.183 258.572 648.884 274.791 662.501 313.669C665.387 321.91 665.813 327.246 666.66 335.047C648.771 335.02 630.881 335.098 612.993 335.281C609.178 317.823 594.801 308.344 577.643 306.406C562.653 304.714 540.804 309.484 539.161 327.702C538.676 333.071 540.311 340.024 544.589 343.805C558.231 354.961 580.161 356.641 596.981 360.041C603.284 361.373 609.521 363.002 615.671 364.924C713.783 396.317 666.331 508.584 570.053 499.547C549.269 499.22 529.047 492.744 511.94 480.937C488.964 464.872 481.335 445.245 476.735 418.955L534.72 418.877C538.196 444.039 563.734 454.291 586.562 453.676C599.446 453.329 616.986 443.174 615.726 428.545C615.271 423.254 611.452 418.21 606.961 415.41C575.781 398.067 535.49 402.536 507.095 378.773C494.014 367.949 486.713 354.686 485.011 337.982C481.356 302.101 505.482 276.783 537.989 266.379C548.867 262.898 556.961 261.687 568.362 260.722Z"/><path fill="#5E39D7" d="M163.166 196.12L216.763 195.967C216.99 219.029 217.052 242.092 216.949 265.154C227.839 265.092 238.728 265.131 249.617 265.269C254.655 265.306 262.269 265.572 267.032 265.149L267.002 311.534L216.609 311.984L216.854 384.091C216.918 397.657 214.393 434.571 225.514 444.653C233.192 451.614 255.781 448.1 265.99 446.429C265.812 456.704 265.946 467.502 265.933 477.814C265.945 484.038 266 490.261 266.098 496.484C237.435 496.637 201.333 502.16 178.572 480.021C163.582 465.441 162.891 442.73 162.972 423.185C163.013 413.289 163.036 403.293 163.061 393.348L163.143 312.097C152.1 311.936 141.055 311.908 130.011 312.013C129.67 296.55 130.098 280.614 129.857 265.027C137.836 264.996 156.344 264.503 163.317 265.384C163.546 242.296 163.495 219.207 163.166 196.12Z"/></svg>